Genre:Action | Horror | Sci-Fi
Language:English
IMDb:http://www.imdb.com/title/tt1587807/
Source:720p.BluRay.x264-SAiMORNY


General
Complete name :Mega.Piranha.2010.480p.BRRip.H264.Feel-Free
Format : MPEG-4
Format profile : Base Media
Codec ID : mp42
File size : 1.23 GiB
Duration : 1h 32mn
Overall bit rate : 1 910 Kbps
Video #1
Codec ID : avc1
Codec ID/Info : Advanced Video Coding
Duration : 1h 32mn
Bit rate mode : Variable
Bit rate : 1 429 Kbps
Width : 720 pixels
Height : 384 pixels
Display aspect ratio : 1.875
Frame rate mode : Constant
Frame rate : 23.976 fps
Resolution : 24 bits
Colorimetry : 4:2:0
Scan type : Progressive
Bits/(Pixel*Frame) : 0.216
Stream size : 942 MiB (75%)
Audio #2
ID : 2
Format : AAC
Format/Info : Advanced Audio Codec
Format version : Version 4
Format profile : LC
Format settings, SBR : No
Codec ID : 40
Duration : 1h 32mn
Bit rate mode : Constant
Bit rate : 477 Kbps
Nominal bit rate : 480 Kbps
Channel(s) : 6 channels
Channel positions : Front: L C R, Rear: L R, LFE
Sampling rate : 48.0 KHz
Resolution : 16 bits
Stream size : 314 MiB (25%)

Plot:
A mutant strain of giant ferocious piranha escape from the Amazon and eat their way toward Florida

